<mxfile host="app.diagrams.net" modified="2024-04-24T10:00:10.713Z" agent="Mozilla/5.0 (Windows NT 10.0; Win64; x64) AppleWebKit/537.36 (KHTML, like Gecko) Chrome/124.0.0.0 Safari/537.36" etag="rlikIDt6P_uZEbxEJvCc" version="24.2.9" type="github">
  <diagram name="페이지-1" id="OzqfoVM7_QmZpFROHrsm">
    <mxGraphModel dx="1420" dy="766" grid="1" gridSize="10" guides="1" tooltips="1" connect="1" arrows="1" fold="1" page="1" pageScale="1" pageWidth="1169" pageHeight="827" math="0" shadow="0">
      <root>
        <mxCell id="0" />
        <mxCell id="1" parent="0" />
      </root>
    </mxGraphModel>
  </diagram>
</mxfile>
